<svg xmlns="http://www.w3.org/2000/svg" width="1024" height="760" viewBox="0 0 1024 760">
  <rect width="1024" height="760" fill="#f7fafc"/>
  <text x="24" y="40" font-size="24" font-family="Arial" fill="#2d3748">Create Appointment — Placeholder</text>
  <text x="24" y="70" font-size="16" font-family="Arial" fill="#4a5568">Three steps: Date & Service, Time, Additional Info.</text>
  <rect x="24" y="96" width="976" height="140" fill="#ffffff" stroke="#cbd5e0"/>
  <circle cx="48" cy="126" r="8" fill="#4299e1"/>
  <text x="64" y="130" font-size="14" font-family="Arial" fill="#2d3748">Date</text>
  <circle cx="120" cy="126" r="8" fill="#48bb78"/>
  <text x="136" y="130" font-size="14" font-family="Arial" fill="#2d3748">Service</text>
  <circle cx="220" cy="126" r="8" fill="#ed8936"/>
  <text x="236" y="130" font-size="14" font-family="Arial" fill="#2d3748">Add-ons</text>
  <circle cx="320" cy="126" r="8" fill="#9f7aea"/>
  <text x="336" y="130" font-size="14" font-family="Arial" fill="#2d3748">Customer</text>
  <circle cx="430" cy="126" r="8" fill="#f56565"/>
  <text x="446" y="130" font-size="14" font-family="Arial" fill="#2d3748">Professional</text>
  <rect x="24" y="250" width="976" height="200" fill="#ffffff" stroke="#cbd5e0"/>
  <circle cx="48" cy="280" r="8" fill="#4299e1"/>
  <text x="64" y="284" font-size="14" font-family="Arial" fill="#2d3748">Available Slots</text>
  <circle cx="180" cy="280" r="8" fill="#48bb78"/>
  <text x="196" y="284" font-size="14" font-family="Arial" fill="#2d3748">Custom Time + Validate</text>
  <rect x="24" y="470" width="976" height="180" fill="#ffffff" stroke="#cbd5e0"/>
  <circle cx="48" cy="500" r="8" fill="#4299e1"/>
  <text x="64" y="504" font-size="14" font-family="Arial" fill="#2d3748">Promo Code</text>
  <circle cx="160" cy="500" r="8" fill="#48bb78"/>
  <text x="176" y="504" font-size="14" font-family="Arial" fill="#2d3748">Status</text>
  <circle cx="240" cy="500" r="8" fill="#ed8936"/>
  <text x="256" y="504" font-size="14" font-family="Arial" fill="#2d3748">Notes</text>
  <rect x="24" y="664" width="976" height="60" fill="#edf2f7" stroke="#cbd5e0"/>
  <text x="40" y="700" font-size="14" font-family="Arial" fill="#2d3748">Summary & Create Appointment</text>
</svg>

